<svg width="160" height="160" viewBox="0 0 160 160" fill="none" xmlns="http://www.w3.org/2000/svg">
<path fill-rule="evenodd" clip-rule="evenodd" d="M80 0C35.8 0 0 35.8 0 80C0 115.4 22.9 145.3 54.7 155.9C58.7 156.6 60.2 154.2 60.2 152.1C60.2 150.2 60.1 143.9 60.1 137.2C40 140.9 34.8 132.3 33.2 127.8C32.3 125.5 28.4 118.4 25 116.5C22.2 115 18.2 111.3 24.9 111.2C31.2 111.1 35.7 117 37.2 119.4C44.4 131.5 55.9 128.1 60.5 126C61.2 120.8 63.3 117.3 65.6 115.3C47.8 113.3 29.2 106.4 29.2 75.8C29.2 67.1 32.3 59.9 37.4 54.3C36.6 52.3 33.8 44.1 38.2 33.1C38.2 33.1 44.9 31 60.2 41.3C66.6 39.5 73.4 38.6 80.2 38.6C87 38.6 93.8 39.5 100.2 41.3C115.5 30.9 122.2 33.1 122.2 33.1C126.6 44.1 123.8 52.3 123 54.3C128.1 59.9 131.2 67 131.2 75.8C131.2 106.5 112.5 113.3 94.7 115.3C97.6 117.8 100.1 122.6 100.1 130.1C100.1 140.8 100 149.4 100 152.1C100 154.2 101.5 156.7 105.5 155.9C137.1 145.3 160 115.3 160 80C160 35.8 124.2 0 80 0Z" fill="#1B1F23"/>
</svg>
